
<svg xmlns="http://www.w3.org/2000/svg" id="Layer_1" data-name="Layer 1" viewBox="0 0 22.35 22.35" fill="#ffffff"><path d="m13.67 12.63-3.89 3.9A19.537 19.537 0 0 1 5.5 12.1l4.23-4.23V0H0v.99c0 11.78 9.58 21.36 21.36 21.36h.99v-9.72h-8.68ZM2.01 1.98h5.73v5.07l-3.33 3.33a19.247 19.247 0 0 1-2.4-8.4Zm18.36 18.36c-3.15-.16-6.22-1.09-8.92-2.7l3.03-3.03h5.89v5.73ZM20.17 9.14v.17h1.98v-.18A9.118 9.118 0 0 0 13.22.2h-.18v1.97h.17c3.8.1 6.86 3.16 6.96 6.96Z" class="cls-1"/><path d="M16.09 9.15v.16h1.99v-.18c-.11-2.62-2.25-4.75-4.86-4.85h-.18v1.97h.16c1.55.11 2.8 1.35 2.89 2.9Z" class="cls-1"/><path d="m13.67 12.63-3.89 3.9A19.537 19.537 0 0 1 5.5 12.1l4.23-4.23V0H0v.99c0 11.78 9.58 21.36 21.36 21.36h.99v-9.72h-8.68ZM2.01 1.98h5.73v5.07l-3.33 3.33a19.247 19.247 0 0 1-2.4-8.4Zm18.36 18.36c-3.15-.16-6.22-1.09-8.92-2.7l3.03-3.03h5.89v5.73ZM20.17 9.14v.17h1.98v-.18A9.118 9.118 0 0 0 13.22.2h-.18v1.97h.17c3.8.1 6.86 3.16 6.96 6.96Z" class="cls-2"/><path d="M16.09 9.15v.16h1.99v-.18c-.11-2.62-2.25-4.75-4.86-4.85h-.18v1.97h.16c1.55.11 2.8 1.35 2.89 2.9Z" class="cls-2"/><path d="m13.67 12.63-3.89 3.9A19.537 19.537 0 0 1 5.5 12.1l4.23-4.23V0H0v.99c0 11.78 9.58 21.36 21.36 21.36h.99v-9.72h-8.68ZM2.01 1.98h5.73v5.07l-3.33 3.33a19.247 19.247 0 0 1-2.4-8.4Zm18.36 18.36c-3.15-.16-6.22-1.09-8.92-2.7l3.03-3.03h5.89v5.73ZM20.17 9.14v.17h1.98v-.18A9.118 9.118 0 0 0 13.22.2h-.18v1.97h.17c3.8.1 6.86 3.16 6.96 6.96Z" class="cls-2"/><path d="M16.09 9.15v.16h1.99v-.18c-.11-2.62-2.25-4.75-4.86-4.85h-.18v1.97h.16c1.55.11 2.8 1.35 2.89 2.9Z" class="cls-2"/><path d="m13.67 12.63-3.89 3.9A19.537 19.537 0 0 1 5.5 12.1l4.23-4.23V0H0v.99c0 11.78 9.58 21.36 21.36 21.36h.99v-9.72h-8.68ZM2.01 1.98h5.73v5.07l-3.33 3.33a19.247 19.247 0 0 1-2.4-8.4Zm18.36 18.36c-3.15-.16-6.22-1.09-8.92-2.7l3.03-3.03h5.89v5.73ZM20.17 9.14v.17h1.98v-.18A9.118 9.118 0 0 0 13.22.2h-.18v1.97h.17c3.8.1 6.86 3.16 6.96 6.96Z" class="cls-2"/><path d="M16.09 9.15v.16h1.99v-.18c-.11-2.62-2.25-4.75-4.86-4.85h-.18v1.97h.16c1.55.11 2.8 1.35 2.89 2.9Z" class="cls-2"/><path d="m13.67 12.63-3.89 3.9A19.537 19.537 0 0 1 5.5 12.1l4.23-4.23V0H0v.99c0 11.78 9.58 21.36 21.36 21.36h.99v-9.72h-8.68ZM2.01 1.98h5.73v5.07l-3.33 3.33a19.247 19.247 0 0 1-2.4-8.4Zm18.36 18.36c-3.15-.16-6.22-1.09-8.92-2.7l3.03-3.03h5.89v5.73ZM20.17 9.14v.17h1.98v-.18A9.118 9.118 0 0 0 13.22.2h-.18v1.97h.17c3.8.1 6.86 3.16 6.96 6.96Z" class="cls-1"/><path d="M16.09 9.15v.16h1.99v-.18c-.11-2.62-2.25-4.75-4.86-4.85h-.18v1.97h.16c1.55.11 2.8 1.35 2.89 2.9Z" class="cls-1"/><path d="m13.67 12.63-3.89 3.9A19.537 19.537 0 0 1 5.5 12.1l4.23-4.23V0H0v.99c0 11.78 9.58 21.36 21.36 21.36h.99v-9.72h-8.68ZM2.01 1.98h5.73v5.07l-3.33 3.33a19.247 19.247 0 0 1-2.4-8.4Zm18.36 18.36c-3.15-.16-6.22-1.09-8.92-2.7l3.03-3.03h5.89v5.73ZM20.17 9.14v.17h1.98v-.18A9.118 9.118 0 0 0 13.22.2h-.18v1.97h.17c3.8.1 6.86 3.16 6.96 6.96Z" class="cls-1"/><path d="M16.09 9.15v.16h1.99v-.18c-.11-2.62-2.25-4.75-4.86-4.85h-.18v1.97h.16c1.55.11 2.8 1.35 2.89 2.9Z" class="cls-1"/><path d="m13.67 12.63-3.89 3.9A19.537 19.537 0 0 1 5.5 12.1l4.23-4.23V0H0v.99c0 11.78 9.58 21.36 21.36 21.36h.99v-9.72h-8.68ZM2.01 1.98h5.73v5.07l-3.33 3.33a19.247 19.247 0 0 1-2.4-8.4Zm18.36 18.36c-3.15-.16-6.22-1.09-8.92-2.7l3.03-3.03h5.89v5.73ZM20.17 9.14v.17h1.98v-.18A9.118 9.118 0 0 0 13.22.2h-.18v1.97h.17c3.8.1 6.86 3.16 6.96 6.96Z" class="cls-1"/><path d="M16.09 9.15v.16h1.99v-.18c-.11-2.62-2.25-4.75-4.86-4.85h-.18v1.97h.16c1.55.11 2.8 1.35 2.89 2.9Z" class="cls-1"/></svg>