
<svg xmlns="http://www.w3.org/2000/svg" width="529.207" height="197.779" version="1.0"><path d="M-76.162 511.997a89.359 89.359 0 0 1-20.85 2.448c-1.87 0-3.724-.052-5.56-.172.82-6.75 1.604-17.144-.18-23.635-2.526-9.17-21.79-32.555-21.79-32.555l-2.57 12.308s-11.273-5.637-9.222-27.168c2.741-28.892 24.091-38.193 24.091-38.193s-7.688 13.326-10.765 21.532c-3.077 8.205 2.31 19.738 2.31 19.738l3.844-5.129s13.067 17.429 21.273 23.842c8.197 6.404 15.127 18.445 17.945 27.168 1.698 5.24 1.724 13.809 1.474 19.816m17.584-167.251c30.021 14.351 50.76 45.01 50.76 80.505 0 33.392-18.351 62.5-45.52 77.79 1.095-18.255-9.886-27.995-14.3-33.675-5.386-6.922-28.71-16.662-37.683-31.789-8.964-15.118.517-36.391.517-36.391s-4.103-.517-7.18-7.947c-3.069-7.439 4.103-15.636 4.103-15.636s.25 5.896 2.56 11.283c2.31 5.378 12.558 5.12 12.558 5.12s-7.43 10.766-4.611 27.944c2.81 17.17 28.453 28.444 28.453 28.444s4.611-1.275 11.274 1.026c6.663 2.31 7.981 8.076 7.981 8.076s4.577-4.49 6.37-9.102c.638-1.62.698-6.852.698-8.886a13.418 13.418 0 0 1-8.766 3.25c-7.438 0-13.463-6.026-13.463-13.456 0-7.438 6.025-13.455 13.463-13.455 5.922 0 10.956 3.827 12.757 9.111 4.344-1.396 7.74-12.412 7.74-12.412 5.336-.664 7.318-6.189 7.318-6.189L-54.337 393.8l2.327-5.06s-4-4.671-7.732-5.68c-1.49-.396-12.403-5.335-12.403-5.335l13.567-32.978zm-127.628 80.505c0-34.693 19.799-64.757 48.717-79.505l12.309 32.081s-7.715 4.551-16.23 7.706c-8.517 3.155-19.73 17.739-19.73 17.739l10.86 1.051.81 2.104s-7.439 6.964-10.809 10.938c-3.827 4.516-9.731 13.808-9.731 13.808s-1.396 23.22 8.87 43.063c9.222 17.825 28.952 32.452 28.952 32.452l-.026.543c-31.754-13.645-53.992-45.218-53.992-81.98m136.937 5.922s8.042 3.611 10.714 5.947c3.542 3.069 9.438 4.457 14.222 2.862 4.24-1.414 6.387-7.637 6.387-7.637s-7.249 3.413-12.119 2.672c-4.879-.741-15.386-4.792-19.204-3.844" style="fill:#FFFFFF;fill-opacity:1;fill-rule:evenodd;stroke:none" transform="translate(197.46 -326.33)"/><path d="M-93.832 338.98c0-.983.104-1.94.302-2.854a88.852 88.852 0 0 1 26.427 5.069c-1.051 6.378-6.594 11.24-13.265 11.24-7.439 0-13.464-6.026-13.464-13.456M-103.227 336.273c.233 1 .362 2.043.362 3.112 0 7.43-6.025 13.455-13.455 13.455-6.481 0-11.894-4.577-13.17-10.689a88.744 88.744 0 0 1 26.263-5.878M-74.903 385.214s5.283.517 8.3 1.905c2.922 1.353 6.68 4.861 6.68 4.861s-5.533 6.68-11.265 3.819c-4.896-2.448-3.715-10.585-3.715-10.585" style="fill:#FFFFFF;fill-opacity:1;fill-rule:nonzero;stroke:none" transform="translate(197.46 -326.33)"/><path d="M-74.903 385.214s5.283.517 8.3 1.905c2.922 1.353 6.68 4.861 6.68 4.861s-5.533 6.68-11.265 3.819c-4.896-2.448-3.715-10.585-3.715-10.585" style="fill:#FFFFFF;fill-opacity:1;fill-rule:nonzero;stroke:none" transform="translate(197.46 -326.33)"/><path d="M-74.903 385.214s5.283.517 8.3 1.905c2.922 1.353 6.68 4.861 6.68 4.861s-5.533 6.68-11.265 3.819c-4.896-2.448-3.715-10.585-3.715-10.585z" style="fill:none;stroke:#263051;stroke-width:.06895543;stroke-linecap:butt;stroke-linejoin:miter;stroke-miterlimit:3.86400008;stroke-dasharray:none;stroke-opacity:1" transform="translate(197.46 -326.33)"/><path d="M121.568 387.722h26.867v72.541h-26.867v-72.54z" style="fill:#FFFFFF;fill-opacity:1;fill-rule:nonzero;stroke:none" transform="translate(197.46 -326.33)"/><path d="M121.568 387.722h26.867v72.541h-26.867v-72.54zM26.435 387.722l49.381-.008s24.686.336 24.686 18.98c0 15.256-17.187 20.583-17.187 20.583s8.499 9.507 14.282 15.248c7.318 7.257 19.61 17.73 19.61 17.73H90.58s-5.568.18-12.343-6.111c-6.783-6.293-21.066-25.902-21.066-25.902s20.325-9.378 17.67-19.609c-2.69-10.378-16.334-9.292-21.54-8.602v60.232H26.435v-72.54z" style="fill:#FFFFFF;fill-opacity:1;fill-rule:nonzero;stroke:none" transform="translate(197.46 -326.33)"/><path d="m26.435 387.722 49.381-.008s24.686.336 24.686 18.98c0 15.256-17.187 20.583-17.187 20.583s8.499 9.507 14.282 15.248c7.318 7.257 19.61 17.73 19.61 17.73H90.58s-5.568.18-12.343-6.111c-6.783-6.293-21.066-25.902-21.066-25.902s20.325-9.378 17.67-19.609c-2.69-10.378-16.334-9.292-21.54-8.602v60.232H26.435v-72.54zM235.344 390.713s-12.006-4.835-26.384-4.835c-13.8 0-52.535 2.663-52.535 40.184 0 29.771 35.59 34.193 54.716 34.193 15.006 0 24.203-3.69 24.203-3.69v-12.35s-10.42 3.645-21.78 3.387c-14.326-.31-30.264-6.06-30.264-24.687 0-19.126 15.395-25.565 29.53-24.936 11.645.518 22.514 5.327 22.514 5.327v-12.593z" style="fill:#FFFFFF;fill-opacity:1;fill-rule:nonzero;stroke:none" transform="translate(197.46 -326.33)"/><path d="M235.344 390.713s-12.006-4.835-26.384-4.835c-13.8 0-52.535 2.663-52.535 40.184 0 29.771 35.59 34.193 54.716 34.193 15.006 0 24.203-3.69 24.203-3.69v-12.35s-10.42 3.645-21.78 3.387c-14.326-.31-30.264-6.06-30.264-24.687 0-19.126 15.395-25.565 29.53-24.936 11.645.518 22.514 5.327 22.514 5.327v-12.593zM303.369 388.541s-14.032-2.905-23.238-2.663c-9.206.241-37.28-.724-36.314 24.686.56 14.765 24.454 20.092 31.47 21.79 7.016 1.698 10.653 3.87 10.653 9.68 0 5.817-14.04 7.024-20.815 6.3-6.784-.732-20.584-5.085-20.584-5.085v13.317s13.317 3.689 31.72 3.689c13.55 0 36.546-6.594 36.546-23.781 0-21.307-23.48-22.273-30.013-24.453-6.533-2.181-12.101-3.388-12.101-8.715s12.998-6.8 19.359-6.05c8.231.965 13.317 4.602 13.317 4.602v-13.317z" style="fill:#FFFFFF;fill-opacity:1;fill-rule:nonzero;stroke:none" transform="translate(197.46 -326.33)"/><path d="M303.369 388.541s-14.032-2.905-23.238-2.663c-9.206.241-37.28-.724-36.314 24.686.56 14.765 24.454 20.092 31.47 21.79 7.016 1.698 10.653 3.87 10.653 9.68 0 5.817-14.04 7.024-20.815 6.3-6.784-.732-20.584-5.085-20.584-5.085v13.317s13.317 3.689 31.72 3.689c13.55 0 36.546-6.594 36.546-23.781 0-21.307-23.48-22.273-30.013-24.453-6.533-2.181-12.101-3.388-12.101-8.715s12.998-6.8 19.359-6.05c8.231.965 13.317 4.602 13.317 4.602v-13.317z" style="fill:#FFFFFF;fill-opacity:1;fill-rule:nonzero;stroke:none" transform="translate(197.46 -326.33)"/></svg>