<svg xmlns="http://www.w3.org/2000/svg" id="Layer_1" data-name="Layer 1" viewBox="0 0 180 43.82" width="140"><defs><style>.cls-1{fill:#fff;stroke-width:0}</style></defs><path d="M0 11.68 10.51 1.54v42.15H0V11.68zM27.7 17.49v26.15h10.51V25.19l-10.51-7.7zM13.85 0v43.64h10.51V9.31L13.85 0zM56.78 43.82c-1.26 0-2.56-.14-3.89-.43s-2.33-.62-2.99-1v-5.08h.17l6.64 4.98c.15.09.44.13.86.13 1 0 1.88-.34 2.66-1.03.78-.69 1.16-1.58 1.16-2.69 0-.78-.21-1.46-.61-2.04-.41-.59-.94-1.07-1.58-1.46-.64-.39-1.36-.76-2.16-1.11-.8-.35-1.59-.74-2.38-1.15-.79-.41-1.5-.87-2.14-1.38-.64-.51-1.17-1.17-1.58-1.98-.41-.81-.61-1.73-.61-2.77 0-2.1.84-3.84 2.52-5.2 1.68-1.36 3.83-2.04 6.45-2.04 1.37 0 2.72.12 4.05.35 1.33.23 2.27.53 2.82.88v4.58H66l-5.81-4.35c-.07-.04-.24-.07-.53-.07-.95 0-1.73.3-2.34.9-.61.6-.91 1.35-.91 2.26 0 .75.2 1.42.61 2.01.41.59.94 1.08 1.58 1.48.64.4 1.36.78 2.14 1.13.79.35 1.57.74 2.36 1.15.79.41 1.5.87 2.14 1.38.64.51 1.17 1.17 1.58 1.98.41.81.61 1.73.61 2.77 0 2.37-.96 4.26-2.89 5.68-1.93 1.42-4.52 2.13-7.77 2.13ZM88.64 36.94v6.88H69.2v-.17l1.69-2.03V22.75l-1.69-2.03v-.17h18.64v5.55h-.17l-5.68-4.02h-4.35v8.74h4.52l3.52-2.96h.17v7.41h-.17l-3.52-2.89h-4.52v9.87h4.58l6.25-5.32h.17ZM101.33 43.82c-3.19 0-5.81-1.08-7.87-3.24-2.06-2.16-3.09-4.9-3.09-8.22 0-3.85 1.18-6.95 3.54-9.29 2.36-2.34 5.5-3.51 9.42-3.51 2.37 0 4.37.35 6.01 1.06v5.81h-.17l-6.48-5.22c-.11-.04-.33-.07-.66-.07-1.33 0-2.44.84-3.34 2.51-.9 1.67-1.35 3.74-1.35 6.2 0 3.06.69 5.53 2.08 7.41 1.38 1.88 3.17 2.82 5.37 2.82s3.95-1.04 5.15-3.12l.13.07c-.27 2.06-1.19 3.7-2.76 4.93-1.57 1.23-3.57 1.84-5.98 1.84ZM124.53 42.11c-2.39 0-4.31-.52-5.76-1.55-1.45-1.03-2.17-2.32-2.17-3.87 0-1.04.23-1.93.7-2.66.46-.73 1.21-1.46 2.23-2.2-1.04-.96-1.56-1.97-1.56-3.03 0-1.45.64-2.71 1.93-3.77 1.29-1.07 2.82-1.6 4.61-1.6.98 0 1.46.5 1.46 1.51 0 .55-.22 1.14-.65 1.76-.43.62-1.04 1.2-1.82 1.76l-.1-.02.44-1.56c-1.19.11-2.17.52-2.94 1.21s-1.16 1.44-1.16 2.26c0 .46.08.81.24 1.07.81-.88 1.44-1.5 1.87-1.87.43-.37.78-.55 1.04-.55.46 0 .68.33.68 1 0 .44-.05.84-.15 1.2l-3.59 1.05c-.21.31-.32.72-.32 1.22 0 1.11.44 2.05 1.33 2.82.89.77 2.29 1.16 4.21 1.16s3.57-.6 5.04-1.81c1.47-1.2 2.21-2.61 2.21-4.22 0-.29-.03-.54-.1-.73l-5.76 2.42-.78 1.07h-.12v-4.76l9.96-4.15.78-1.07h.12v4.74l-3.59 1.51c1.22 1.01 1.83 2.3 1.83 3.88 0 2.25-.96 4.11-2.87 5.58-1.91 1.47-4.33 2.21-7.26 2.21ZM163.42 27.01l-8.01 14.78h-.17l-7.57-14.68v13.95l2.59 2.59v.17h-6.45v-.17l1.69-2.59V23.85l-1.69-3.12v-.17h7.57l6.61 12.13 6.71-12.13h7.14v.17l-1.73 2.03v18.87l1.73 2.03v.17h-10.17v-.17l1.73-2.03V27.01ZM179.12 42.9c-.59.61-1.38.92-2.38.92s-1.79-.31-2.38-.92c-.59-.61-.88-1.39-.88-2.32s.29-1.74.88-2.34c.59-.6 1.38-.9 2.38-.9s1.79.3 2.38.9c.59.6.88 1.38.88 2.34s-.29 1.71-.88 2.32Z" class="cls-1"/></svg>