<?xml version="1.0" encoding="iso-8859-1"?>
<!-- Uploaded to: SVG Repo, www.svgrepo.com, Generator: SVG Repo Mixer Tools -->
<svg fill="#000000" height="800px" width="800px" version="1.1" id="Layer_1" xmlns="http://www.w3.org/2000/svg" xmlns:xlink="http://www.w3.org/1999/xlink" 
	 viewBox="0 0 512.002 512.002" xml:space="preserve">
<g>
	<g>
		<g>
			<path d="M85.333,64.001C73.557,64.001,64,73.558,64,85.334s9.557,21.333,21.333,21.333s21.333-9.557,21.333-21.333
				S97.109,64.001,85.333,64.001z"/>
			<path d="M85.333,149.334c-11.776,0-21.333,9.557-21.333,21.333s9.557,21.333,21.333,21.333s21.333-9.557,21.333-21.333
				S97.109,149.334,85.333,149.334z"/>
			<path d="M490.669,106.668H477.82l-12.361-30.621c-11.023-27.309-42.1-40.527-69.41-29.503
				c-27.31,11.023-40.528,42.122-29.504,69.432l17.457,43.222v54.137c0,11.782,9.551,21.333,21.333,21.333h21.331v170.667
				c0,11.791-9.542,21.333-21.333,21.333S384,417.126,384,405.334v-128c0-35.355-28.645-64-64-64c-7.483,0-14.66,1.296-21.333,3.654
				V64.001c0-35.355-28.645-64-64-64H64c-35.355,0-64,28.645-64,64v170.667v213.333c0,35.355,28.645,64,64,64h170.667
				c35.355,0,64-28.645,64-64V277.334c0-11.791,9.542-21.333,21.333-21.333s21.333,9.542,21.333,21.333v128
				c0,35.355,28.645,64,64,64c35.355,0,64-28.645,64-64V234.668h21.335c11.782,0,21.333-9.551,21.333-21.333v-85.333
				C512.002,116.219,502.451,106.668,490.669,106.668z M42.667,64.001c0-11.791,9.542-21.333,21.333-21.333h170.667
				c11.791,0,21.333,9.542,21.333,21.333v149.333H42.667V64.001z M256,448.001c0,11.791-9.542,21.333-21.333,21.333H64
				c-11.791,0-21.333-9.542-21.333-21.333v-192H256V448.001z M469.335,192.001h-42.667v-36.949c0-2.738-0.527-5.451-1.553-7.989
				l-19.008-47.061c-2.201-5.452,0.45-11.688,5.911-13.892c5.452-2.201,11.669,0.444,13.875,5.909l17.75,43.969
				c3.256,8.066,11.084,13.347,19.782,13.347h5.909V192.001z"/>
			<path d="M213.333,64.001h-42.667c-11.782,0-21.333,9.551-21.333,21.333c0,11.782,9.551,21.333,21.333,21.333h42.667
				c11.782,0,21.333-9.551,21.333-21.333C234.667,73.552,225.115,64.001,213.333,64.001z"/>
			<path d="M213.333,149.334h-42.667c-11.782,0-21.333,9.551-21.333,21.333c0,11.782,9.551,21.333,21.333,21.333h42.667
				c11.782,0,21.333-9.551,21.333-21.333C234.667,158.886,225.115,149.334,213.333,149.334z"/>
			<path d="M128,341.334h42.667c11.782,0,21.333-9.551,21.333-21.333s-9.551-21.333-21.333-21.333H128
				c-11.782,0-21.333,9.551-21.333,21.333S116.218,341.334,128,341.334z"/>
			<path d="M192,384.001h-85.333c-11.782,0-21.333,9.551-21.333,21.333c0,11.782,9.551,21.333,21.333,21.333H192
				c11.782,0,21.333-9.551,21.333-21.333C213.333,393.552,203.782,384.001,192,384.001z"/>
		</g>
	</g>
</g>
</svg>